<?xml version="1.0" encoding="UTF-8"?>
<svg version="1.1" xmlns="http://www.w3.org/2000/svg" width="512" height="512">
<path d="M0 0 C1.44594549 -0.00577834 2.8918836 -0.01373083 4.3378067 -0.02363622 C8.26571307 -0.04429844 12.19300354 -0.03428996 16.12091064 -0.01870513 C20.37459252 -0.00730988 24.62817446 -0.02489451 28.88183594 -0.03860474 C37.19680899 -0.06075514 45.51155546 -0.0560727 53.82653713 -0.04154153 C60.58855983 -0.03021686 67.35051935 -0.02873231 74.11254883 -0.03416061 C75.07756207 -0.03492678 76.04257531 -0.03569294 77.03683138 -0.03648233 C78.99767242 -0.03808107 80.95851344 -0.03970214 82.91935444 -0.04134528 C101.27553551 -0.05557877 119.63159142 -0.03924781 137.98775196 -0.01234345 C153.71390249 0.00999313 169.43986843 0.00611233 185.16601562 -0.01693726 C203.45969426 -0.04373775 221.75326339 -0.0542057 240.04695892 -0.03887594 C242.00030007 -0.03728331 243.95364124 -0.03571145 245.90698242 -0.03416061 C246.86788552 -0.03338924 247.82878861 -0.03261786 248.81880999 -0.03182311 C255.56714046 -0.02751884 262.31540106 -0.0347651 269.0637207 -0.04655838 C277.29569215 -0.06062923 285.52742544 -0.05668753 293.75936985 -0.03015466 C297.95376747 -0.01707784 302.14776903 -0.01175824 306.34216309 -0.02840042 C310.19150447 -0.04344174 314.04008755 -0.03488236 317.88936138 -0.00851266 C319.92053795 -0.0003956 321.95176834 -0.01647778 323.98288727 -0.03379881 C337.62364377 0.10965795 349.3718374 3.90256669 360.00976562 12.63491821 C361.49089844 13.79894165 361.49089844 13.79894165 363.00195312 14.98648071 C366.01169085 17.5154799 368.2875148 20.29737054 370.57226562 23.50991821 C371.29542969 24.49734009 372.01859375 25.48476196 372.76367188 26.50210571 C379.14681794 37.12887309 380.74840826 48.46209774 380.64468384 60.62515259 C380.65046218 62.07109807 380.65841467 63.51703619 380.66832006 64.96295929 C380.68898228 68.89086565 380.6789738 72.81815613 380.66338897 76.74606323 C380.65199372 80.9997451 380.66957834 85.25332705 380.68328857 89.50698853 C380.70543898 97.82196157 380.70075653 106.13670805 380.68622537 114.45168972 C380.6749007 121.21371242 380.67341614 127.97567194 380.67884445 134.73770142 C380.67961062 135.70271466 380.68037678 136.6677279 380.68116616 137.66198397 C380.68276491 139.62282501 380.68438597 141.58366603 380.68602912 143.54450703 C380.70026261 161.9006881 380.68393165 180.25674401 380.65702729 198.61290455 C380.6346907 214.33905507 380.63857151 230.06502102 380.66162109 245.79116821 C380.68842159 264.08484685 380.69888954 282.37841598 380.68355978 300.67211151 C380.68196715 302.62545266 380.68039529 304.57879383 380.67884445 306.53213501 C380.67807307 307.49303811 380.6773017 308.4539412 380.67650694 309.44396257 C380.67220268 316.19229304 380.67944893 322.94055364 380.69124222 329.68887329 C380.70531307 337.92084474 380.70137137 346.15257802 380.6748385 354.38452244 C380.66176168 358.57892006 380.65644208 362.77292162 380.67308426 366.96731567 C380.68812557 370.81665706 380.6795662 374.66524014 380.6531965 378.51451397 C380.64507944 380.54569053 380.66116162 382.57692093 380.67848265 384.60803986 C380.53502588 398.24879636 376.74211714 409.99698999 368.00976562 420.63491821 C366.84574219 422.11605103 366.84574219 422.11605103 365.65820312 423.62710571 C363.12920394 426.63684344 360.3473133 428.91266738 357.13476562 431.19741821 C356.14734375 431.92058228 355.15992188 432.64374634 354.14257812 433.38882446 C343.51581075 439.77197053 332.1825861 441.37356085 320.01953125 441.26983643 C318.57358576 441.27561476 317.12764765 441.28356726 315.68172455 441.29347265 C311.75381818 441.31413486 307.82652771 441.30412639 303.89862061 441.28854156 C299.64493873 441.27714631 295.39135679 441.29473093 291.13769531 441.30844116 C282.82272226 441.33059157 274.50797579 441.32590912 266.19299412 441.31137796 C259.43097142 441.30005329 252.6690119 441.29856873 245.90698242 441.30399704 C244.94196918 441.3047632 243.97695594 441.30552937 242.98269987 441.30631875 C241.02185883 441.30791749 239.06101781 441.30953856 237.10017681 441.31118171 C218.74399574 441.3254152 200.38793983 441.30908423 182.03177929 441.28217988 C166.30562876 441.25984329 150.57966282 441.2637241 134.85351562 441.28677368 C116.55983699 441.31357418 98.26626786 441.32404212 79.97257233 441.30871236 C78.01923118 441.30711974 76.06589001 441.30554788 74.11254883 441.30399704 C73.15164573 441.30322566 72.19074264 441.30245428 71.20072126 441.30165953 C64.45239079 441.29735527 57.70413019 441.30460152 50.95581055 441.31639481 C42.7238391 441.33046565 34.49210581 441.32652396 26.2601614 441.29999109 C22.06576378 441.28691427 17.87176222 441.28159467 13.67736816 441.29823685 C9.82802678 441.31327816 5.9794437 441.30471879 2.13016987 441.27834909 C0.0989933 441.27023203 -1.93223709 441.28631421 -3.96335602 441.30363524 C-17.60411252 441.16017847 -29.35230615 437.36726973 -39.99023438 428.63491821 C-40.97765625 427.85890259 -41.96507813 427.08288696 -42.98242188 426.28335571 C-45.9921596 423.75435653 -48.26798355 420.97246589 -50.55273438 417.75991821 C-51.27589844 416.77249634 -51.9990625 415.78507446 -52.74414062 414.76773071 C-59.12728669 404.14096333 -60.72887701 392.80773869 -60.62515259 380.64468384 C-60.63093093 379.19873835 -60.63888342 377.75280024 -60.64878881 376.30687714 C-60.66945103 372.37897077 -60.65944255 368.4516803 -60.64385772 364.52377319 C-60.63246247 360.27009132 -60.65004709 356.01650938 -60.66375732 351.7628479 C-60.68590773 343.44787485 -60.68122528 335.13312837 -60.66669412 326.81814671 C-60.65536945 320.05612401 -60.65388489 313.29416449 -60.6593132 306.53213501 C-60.66007937 305.56712177 -60.66084553 304.60210853 -60.66163491 303.60785246 C-60.66323366 301.64701142 -60.66485472 299.6861704 -60.66649787 297.7253294 C-60.68073136 279.36914833 -60.6644004 261.01309242 -60.63749604 242.65693188 C-60.61515945 226.93078135 -60.61904026 211.20481541 -60.64208984 195.47866821 C-60.66889034 177.18498958 -60.67935829 158.89142044 -60.66402853 140.59772491 C-60.6624359 138.64438377 -60.66086404 136.6910426 -60.6593132 134.73770142 C-60.65854182 133.77679832 -60.65777045 132.81589522 -60.65697569 131.82587385 C-60.65267143 125.07754338 -60.65991768 118.32928278 -60.67171097 111.58096313 C-60.68578182 103.34899168 -60.68184012 95.1172584 -60.65530725 86.88531399 C-60.64223043 82.69091637 -60.63691083 78.49691481 -60.65355301 74.30252075 C-60.66859432 70.45317937 -60.66003495 66.60459629 -60.63366525 62.75532246 C-60.62554819 60.72414589 -60.64163037 58.6929155 -60.6589514 56.66179657 C-60.51549463 43.02104007 -56.72258589 31.27284644 -47.99023438 20.63491821 C-47.21421875 19.64749634 -46.43820313 18.66007446 -45.63867188 17.64273071 C-43.10967269 14.63299299 -40.32778205 12.35716904 -37.11523438 10.07241821 C-36.1278125 9.34925415 -35.14039062 8.62609009 -34.12304688 7.88101196 C-23.4962795 1.49786589 -12.16305485 -0.10372443 0 0 Z " fill="#3FA9F4" transform="translate(85.990234375,39.365081787109375)"/>
<path d="M0 0 C4.97309568 4.16447517 9.62936384 8.50559801 14.18359375 13.12109375 C14.84279312 13.78407974 15.50199249 14.44706573 16.1811676 15.13014221 C18.97009346 17.93524066 21.7529851 20.74629681 24.53637695 23.55688477 C26.58332833 25.62207178 28.63339306 27.68413321 30.68359375 29.74609375 C31.60584999 30.6807975 31.60584999 30.6807975 32.54673767 31.63438416 C37.8955372 37.01275673 43.44054213 42.08865861 49.50056362 46.66135311 C63.07175335 56.99850707 77.12344741 68.38032714 79.77404785 86.10302734 C81.13118504 97.90608308 80.72547824 109.82192344 80.30786991 121.66978073 C80.12983485 127.64885283 80.12898476 133.62830698 80.10614014 139.60961914 C80.04403859 149.62806227 79.87007088 159.63902472 79.61328125 169.65429688 C79.25230155 183.74092429 79.09954737 197.82431204 78.98616266 211.91480064 C78.89016247 222.92283981 78.73901466 233.93024411 78.578125 244.9375 C78.56153367 246.10633602 78.54494234 247.27517204 78.52784824 248.47942734 C78.42871045 255.21224945 78.30118905 261.94351144 78.13263321 268.6749649 C78.08485843 270.70356577 78.04473994 272.73236515 78.01323318 274.76128387 C77.74702919 291.16545078 75.76970405 304.88012748 65 318 C64.22398437 318.98742187 63.44796875 319.97484375 62.6484375 320.9921875 C60.11943832 324.00192523 57.33754768 326.27774917 54.125 328.5625 C53.13757813 329.28566406 52.15015625 330.00882812 51.1328125 330.75390625 C37.69032034 338.69268546 23.77179188 338.82774455 8.609375 338.875 C6.3702956 338.89365014 4.13122084 338.9128663 1.89215088 338.93261719 C-2.77415956 338.96685657 -7.44001591 338.98032113 -12.10644531 338.98144531 C-18.06449721 338.98654464 -24.01912398 339.06546198 -29.97629166 339.1625061 C-34.59029282 339.22578267 -39.20346902 339.23892507 -43.81786346 339.23834229 C-46.01386886 339.24604684 -48.20989189 339.27156879 -50.40546417 339.31585693 C-69.28907289 339.66399781 -69.28907289 339.66399781 -75.08971786 334.31903076 C-76.33812694 332.95812193 -77.48260134 331.50386474 -78.6161499 330.04589844 C-81.09762279 326.87526518 -83.74185918 324.52987615 -86.7922554 321.93220329 C-90.89465127 318.34181389 -94.69190907 314.43787654 -98.53710938 310.57641602 C-99.91411514 309.19962929 -99.91411514 309.19962929 -101.31893921 307.79502869 C-103.81236447 305.30188792 -106.30271521 302.80569715 -108.79248619 300.30890775 C-111.40383443 297.6912676 -114.01805396 295.07649806 -116.63195801 292.46141052 C-121.57069025 287.51958207 -126.50686993 282.57521224 -131.44211626 277.62990278 C-137.06535381 271.99545075 -142.69146363 266.36387043 -148.31780529 260.73251832 C-159.88171457 249.15818339 -171.44204804 237.58028389 -183 226 C-180.90354693 224.42068858 -178.80270734 222.8603471 -176.66015625 221.34375 C-170.19825466 216.75725744 -164.15484108 211.82830737 -158.14453125 206.6796875 C-153.85193106 203.00554601 -149.44682435 199.48492263 -145 196 C-144.37609375 195.47148437 -143.7521875 194.94296875 -143.109375 194.3984375 C-139.68802221 191.63977917 -136.67826109 190.05647635 -132.19140625 190.4140625 C-127.17026909 191.75661254 -123.14215012 194.97673277 -119 198 C-118.32001953 198.49371094 -117.64003906 198.98742187 -116.93945312 199.49609375 C-112.93289901 202.41440479 -108.9460224 205.35833906 -104.96875 208.31640625 C-98.12884796 213.3997213 -91.20768286 218.36917151 -84.29101562 223.34716797 C-81.87242545 225.09203748 -79.45916002 226.84408159 -77.046875 228.59765625 C-76.23355713 229.18796631 -75.42023926 229.77827637 -74.58227539 230.38647461 C-73.02825094 231.51464344 -71.47528874 232.64427751 -69.92358398 233.77563477 C-63.44989907 238.76713789 -63.44989907 238.76713789 -55.9375 241.5625 C-52.85501567 241.27310521 -52.85501567 241.27310521 -50.9921875 238.83203125 C-48.05262681 234.0929385 -47.46980096 228.54297213 -46.53494263 223.13168335 C-45.93098764 219.64349184 -45.27885421 216.16419118 -44.6328125 212.68359375 C-44.50018509 211.96281143 -44.36755768 211.24202911 -44.23091125 210.49940491 C-42.84435913 203.02389221 -41.21819063 195.60719151 -39.5625 188.1875 C-37.14813866 177.30774054 -34.80481142 166.41658723 -32.5625 155.5 C-32.34948746 154.46369949 -32.34948746 154.46369949 -32.13217163 153.40646362 C-30.37707896 144.8550494 -28.65664228 136.29698056 -26.95703125 127.734375 C-26.26311488 124.23956465 -25.56914631 120.74476469 -24.875 117.25 C-24.7044812 116.39107147 -24.5339624 115.53214294 -24.35827637 114.64718628 C-22.286342 104.22584089 -20.12473927 93.8402115 -17.71337891 83.49121094 C-14.55804182 69.89452864 -11.99518774 56.16996671 -9.35336304 42.46618652 C-8.54587179 38.28119245 -7.73481204 34.09689245 -6.92370605 29.91259766 C-6.31924835 26.78491835 -5.7205916 23.65616365 -5.12207031 20.52734375 C-4.74440934 18.57546882 -4.36649068 16.62364373 -3.98828125 14.671875 C-3.81760635 13.77080017 -3.64693146 12.86972534 -3.47108459 11.94134521 C-2.65530971 7.76115295 -1.79865878 3.8931661 0 0 Z " fill="#378BC7" transform="translate(389,142)"/>
<path d="M0 0 C2 2.4375 2 2.4375 1.75683594 5.40039062 C1.5177974 6.74850857 1.26380744 8.09400938 1 9.4375 C0.85115356 10.24203613 0.70230713 11.04657227 0.5489502 11.87548828 C0.01144672 14.74304642 -0.54695261 17.6059771 -1.109375 20.46875 C-1.4224057 22.07006775 -1.4224057 22.07006775 -1.74176025 23.70373535 C-2.18468504 25.96656682 -2.62853313 28.22921773 -3.07324219 30.49169922 C-3.73677807 33.87017881 -4.39594153 37.24948991 -5.0546875 40.62890625 C-7.30684829 52.13664884 -9.65875766 63.61380399 -12.18075562 75.06544495 C-14.18777553 84.20931193 -16.01495951 93.38551742 -17.82250977 102.57055664 C-20.57809174 116.55790534 -23.39516856 130.52322161 -26.5 144.4375 C-29.39145975 157.40235024 -32.03610883 170.40911399 -34.625 183.4375 C-34.81862122 184.41153778 -35.01224243 185.38557556 -35.21173096 186.38912964 C-35.96555401 190.18217137 -36.71916477 193.97525519 -37.47238159 197.76841736 C-39.57358516 208.34072512 -41.72400606 218.90127885 -44 229.4375 C-44.27199219 230.72914063 -44.54398438 232.02078125 -44.82421875 233.3515625 C-47.06572146 243.29007717 -47.06572146 243.29007717 -51 246.4375 C-54.24899878 247.26863922 -56.09915665 246.96407567 -58.99560547 245.27099609 C-59.71635254 244.77680176 -60.43709961 244.28260742 -61.1796875 243.7734375 C-61.9749585 243.22937256 -62.77022949 242.68530762 -63.58959961 242.12475586 C-67.23110516 239.57573886 -70.84414541 236.99141005 -74.4375 234.375 C-76.02077665 233.22648435 -77.60411162 232.07804911 -79.1875 230.9296875 C-79.98671875 230.34928711 -80.7859375 229.76888672 -81.609375 229.17089844 C-83.90301207 227.50782418 -86.20053763 225.85032028 -88.5 224.1953125 C-94.72727329 219.71167573 -100.95096858 215.22651211 -107.109375 210.6484375 C-107.95765869 210.0186499 -108.80594238 209.3888623 -109.67993164 208.73999023 C-111.30409509 207.53202757 -112.92584087 206.32080463 -114.54467773 205.10571289 C-123.32073287 198.13645321 -123.32073287 198.13645321 -133.91015625 195.8671875 C-138.38809213 197.08920365 -141.58664988 200.43353061 -145 203.4375 C-146.78748611 204.90095446 -148.57932669 206.35910297 -150.375 207.8125 C-153.18931862 210.12047678 -155.99721838 212.43518133 -158.79296875 214.765625 C-176.64272095 229.56908663 -176.64272095 229.56908663 -183 229.4375 C-187.46802725 225.39746955 -189.21492285 221.04044844 -190.9375 215.375 C-191.18854492 214.58754395 -191.43958984 213.80008789 -191.69824219 212.98876953 C-193.75539118 206.45391857 -195.61434338 199.86203798 -197.46411133 193.26611328 C-199.67580585 185.43488753 -202.04461904 177.65582226 -204.46105957 169.88580322 C-204.89798056 168.48028969 -205.33348506 167.0743349 -205.76745605 165.66790771 C-206.7759702 162.40308499 -207.80603265 159.15033773 -208.87597656 155.90478516 C-209.56900549 153.76699261 -210.21251101 151.61150114 -210.77246094 149.43505859 C-211.92354129 145.54710868 -212.79287366 143.11157107 -216.43904114 141.07551575 C-217.41540024 140.70230698 -218.39175934 140.32909821 -219.39770508 139.94458008 C-220.47604614 139.52553909 -221.55438721 139.10649811 -222.66540527 138.67475891 C-223.76582153 138.26646347 -224.86623779 137.85816803 -226 137.4375 C-226.98826782 137.06356613 -227.97653564 136.68963226 -228.99475098 136.30436707 C-232.01720697 135.17352035 -235.04826701 134.06887323 -238.08203125 132.96875 C-240.33546423 132.1424117 -242.58871419 131.31557417 -244.84179688 130.48828125 C-248.33993604 129.20642636 -251.83913632 127.92784053 -255.34155273 126.65771484 C-258.75867409 125.416902 -262.17062993 124.16268939 -265.58203125 122.90625 C-266.62382034 122.53213989 -267.66560944 122.15802979 -268.7389679 121.77258301 C-274.50663459 119.63494426 -279.29205899 117.43914844 -284 113.4375 C-284.75 110.4375 -284.75 110.4375 -284 107.4375 C-279.92017004 102.30880688 -275.15368022 100.52426557 -269.125 98.25 C-268.05894531 97.83548584 -266.99289062 97.42097168 -265.89453125 96.99389648 C-262.68615662 95.75108962 -259.47304513 94.52201328 -256.25744629 93.2980957 C-252.95607879 92.03953079 -249.65801201 90.77240298 -246.3596344 89.50602722 C-239.53586147 86.88618956 -232.71051997 84.2704926 -225.88208008 81.6628418 C-211.50833595 76.17332028 -197.15456915 70.63421209 -182.8125 65.0625 C-165.84387415 58.47247535 -148.86568692 51.90794942 -131.875 45.375 C-130.79057617 44.95801849 -129.70615234 44.54103699 -128.58886719 44.11141968 C-117.06141792 39.67977348 -105.53108591 35.25572663 -93.99609375 30.84375 C-93.02387878 30.47176987 -92.05166382 30.09978973 -91.04998779 29.71653748 C-86.2338665 27.87401572 -81.41708274 26.03326089 -76.59912109 24.19555664 C-66.18229619 20.21764704 -55.79000126 16.18319919 -45.41796875 12.08984375 C-42.04070671 10.76195608 -38.66313469 9.43485963 -35.28549194 8.10794067 C-33.11434326 7.25187578 -30.94488998 6.39149708 -28.7772522 5.52658081 C-25.77218973 4.32754879 -22.76179497 3.14293563 -19.75 1.9609375 C-18.86366379 1.60253281 -17.97732758 1.24412811 -17.06413269 0.87486267 C-11.13655565 -1.43014848 -5.97557753 -3.11227996 0 0 Z " fill="#FDFEFE" transform="translate(387,137.5625)"/>
<path d="M0 0 C-0.10209804 3.85784726 -1.41211619 5.68894198 -4.0703125 8.27734375 C-5.41187316 9.50838529 -6.76417375 10.72778921 -8.125 11.9375 C-9.59256268 13.27591584 -11.06000789 14.61446049 -12.52734375 15.953125 C-13.27483887 16.62794922 -14.02233398 17.30277344 -14.79248047 17.99804688 C-18.12735108 21.02237103 -21.40520177 24.10638739 -24.6875 27.1875 C-29.77752755 31.94198679 -34.89013291 36.67137354 -40.01416016 41.38916016 C-44.38756945 45.4215421 -48.72717532 49.48923981 -53.0625 53.5625 C-58.65348807 58.8148808 -64.28090965 64.02213158 -69.9453125 69.1953125 C-74.10866968 73.00737785 -78.22634885 76.86846603 -82.34814453 80.7253418 C-85.97434889 84.11647129 -89.61441533 87.49127525 -93.27392578 90.84643555 C-94.89365397 92.33471236 -96.50644705 93.83013134 -98.1171875 95.328125 C-99.87760407 96.9597306 -101.65071025 98.57794712 -103.4453125 100.171875 C-112.24007094 108.2851208 -113.47203214 117.10047182 -114.22998047 128.60449219 C-114.65310614 134.4594506 -115.89141845 139.52165239 -118 145 C-120.36914062 144.79760742 -120.36914062 144.79760742 -123 144 C-124.24023438 141.9465332 -124.24023438 141.9465332 -125.09375 139.23828125 C-125.41472656 138.24006348 -125.73570312 137.2418457 -126.06640625 136.21337891 C-127.6137523 130.88749796 -129.10281683 125.55491634 -130.5 120.1875 C-131.10439312 117.89294557 -131.70985293 115.59867184 -132.31640625 113.3046875 C-132.74783936 111.67225098 -132.74783936 111.67225098 -133.18798828 110.00683594 C-134.47305917 105.24828723 -135.89773667 100.5356775 -137.37109375 95.83203125 C-139.09797395 88.05570735 -139.09797395 88.05570735 -137.07104492 84.26074219 C-132.65205651 78.53018187 -126.38804495 75.18358332 -120.25 71.5625 C-119.09166094 70.86654252 -117.93412381 70.16924881 -116.77734375 69.47070312 C-114.3787085 68.02363856 -111.97676079 66.58232426 -109.57226562 65.14501953 C-104.01542103 61.81681471 -98.51076657 58.40373345 -93 55 C-90.833574 53.66627566 -88.6669066 52.33294337 -86.5 51 C-85.4275 50.34 -84.355 49.68 -83.25 49 C-73.5 43 -73.5 43 -70.24951172 40.99975586 C-68.08440558 39.66734531 -65.91936644 38.3348259 -63.75439453 37.00219727 C-58.31439786 33.65384618 -52.87322414 30.30743716 -47.4296875 26.96484375 C-46.34510254 26.29839844 -45.26051758 25.63195312 -44.14306641 24.9453125 C-41.98187073 23.61753174 -39.82009605 22.29069291 -37.65771484 20.96484375 C-32.13488883 17.57187796 -26.6369979 14.14497292 -21.171875 10.66015625 C-20.07246582 9.96220947 -18.97305664 9.2642627 -17.84033203 8.54516602 C-15.74264646 7.21089783 -13.64962336 5.86926266 -11.56201172 4.51928711 C-10.62631348 3.92510986 -9.69061523 3.33093262 -8.7265625 2.71875 C-7.49800537 1.92887695 -7.49800537 1.92887695 -6.24462891 1.12304688 C-4 0 -4 0 0 0 Z " fill="#398CC7" transform="translate(327,187)"/>
<path d="M0 0 C6.81463768 1.35754939 13.12421178 3.33796122 19.625 5.7734375 C20.61193848 6.13845367 21.59887695 6.50346985 22.61572266 6.87954712 C24.69080778 7.64837141 26.76485083 8.4200136 28.83789062 9.19433594 C31.98842491 10.37067811 35.14232113 11.53761071 38.296875 12.703125 C40.32312188 13.45517648 42.3491703 14.20776296 44.375 14.9609375 C45.30650879 15.3058725 46.23801758 15.6508075 47.19775391 16.00619507 C49.80726578 16.98296329 52.40507737 17.98517832 55 19 C55.84336914 19.31849915 56.68673828 19.63699829 57.55566406 19.96514893 C60.94138104 21.32843266 63.42643617 22.34518948 65.8527832 25.11523438 C67.5587101 29.40491989 68.99532332 33.74562962 70.35546875 38.15625 C70.66196854 39.13613892 70.96846832 40.11602783 71.28425598 41.12561035 C71.92868165 43.19226539 72.56978137 45.25996009 73.20776367 47.32861328 C74.1849886 50.49187066 75.17672465 53.65031997 76.16992188 56.80859375 C76.79514992 58.82003946 77.4195278 60.83174967 78.04296875 62.84375 C78.48820137 64.25799255 78.48820137 64.25799255 78.94242859 65.70080566 C79.21303604 66.58522339 79.48364349 67.46964111 79.76245117 68.38085938 C80.00211105 69.15409546 80.24177094 69.92733154 80.48869324 70.72399902 C81.04762828 73.21200975 81.08891158 75.45806542 81 78 C76.87822668 75.77201442 73.93387897 73.11383118 70.6875 69.75 C67.64356307 66.60385788 64.5932484 63.61428687 61.26953125 60.765625 C55.33427175 55.63311093 49.92477814 49.96909296 44.421875 44.3828125 C40.81038959 40.73809256 37.22633952 37.12574517 33.3125 33.8046875 C27.22955855 28.58767786 21.66016066 22.80863956 16.00634766 17.13671875 C13.98063898 15.10558715 11.94955941 13.07993401 9.91796875 11.0546875 C8.63249118 9.76855024 7.34732325 8.48210341 6.0625 7.1953125 C5.45325684 6.58809357 4.84401367 5.98087463 4.21630859 5.35525513 C0 1.11499023 0 1.11499023 0 0 Z " fill="#388CC7" transform="translate(109,256)"/>
</svg>
